<svg id="svg" version="1.1" xmlns="http://www.w3.org/2000/svg" xmlns:xlink="http://www.w3.org/1999/xlink" width="400" height="280.2919708029197" viewBox="0, 0, 400,280.2919708029197"><g id="svgg"><path id="path0" d="M222.565 5.350 C 222.565 5.491,222.376 5.606,222.144 5.606 C 221.913 5.606,221.724 5.732,221.724 5.886 C 221.724 6.041,221.535 6.167,221.303 6.167 C 220.774 6.167,219.691 7.227,219.890 7.549 C 219.972 7.682,219.850 7.862,219.620 7.951 C 219.296 8.075,219.201 8.624,219.201 10.363 L 219.201 12.614 220.322 13.735 C 220.939 14.352,221.633 14.856,221.864 14.856 C 222.095 14.856,222.285 14.982,222.285 15.137 C 222.285 15.316,224.947 15.417,229.713 15.417 L 237.141 15.417 237.141 74.562 L 237.141 133.707 227.767 133.707 C 222.468 133.707,218.325 133.817,218.236 133.961 C 218.150 134.101,217.827 134.149,217.519 134.069 C 217.206 133.987,216.959 134.060,216.959 134.235 C 216.959 134.407,216.760 134.548,216.518 134.548 C 216.091 134.548,215.441 135.037,215.315 135.454 C 215.280 135.567,215.069 136.099,214.844 136.636 C 213.865 138.980,214.742 142.031,216.649 142.911 C 217.205 143.168,217.701 143.470,217.751 143.583 C 217.902 143.921,239.612 143.814,239.725 143.475 C 239.879 143.011,305.031 142.984,305.186 143.448 C 305.269 143.698,306.136 143.798,308.222 143.798 C 309.828 143.798,311.142 143.907,311.142 144.039 C 311.142 144.172,313.192 144.372,315.697 144.483 C 318.203 144.594,320.294 144.800,320.346 144.942 C 320.397 145.084,321.249 145.200,322.238 145.200 C 323.250 145.200,324.036 145.322,324.036 145.480 C 324.036 145.634,324.642 145.760,325.382 145.760 C 326.122 145.760,326.847 145.874,326.994 146.012 C 327.140 146.150,328.332 146.346,329.643 146.447 C 330.953 146.548,332.067 146.750,332.119 146.896 C 332.170 147.042,332.643 147.162,333.170 147.162 C 333.697 147.162,334.128 147.280,334.128 147.423 C 334.128 147.567,334.502 147.674,334.959 147.661 C 335.416 147.648,335.952 147.771,336.150 147.933 C 336.348 148.096,337.237 148.319,338.126 148.429 C 339.014 148.539,339.810 148.740,339.894 148.876 C 339.978 149.013,340.355 149.124,340.731 149.124 C 341.108 149.124,341.416 149.250,341.416 149.404 C 341.416 149.559,341.723 149.685,342.100 149.685 C 342.476 149.685,342.860 149.807,342.952 149.957 C 343.045 150.107,343.744 150.312,344.505 150.413 C 345.267 150.514,345.822 150.707,345.738 150.841 C 345.655 150.976,345.910 151.086,346.304 151.086 C 346.699 151.086,347.022 151.212,347.022 151.367 C 347.022 151.521,347.242 151.648,347.512 151.649 C 347.782 151.649,348.364 151.839,348.806 152.069 C 349.247 152.299,349.846 152.488,350.137 152.488 C 350.428 152.488,350.666 152.614,350.666 152.768 C 350.666 152.922,350.855 153.048,351.086 153.048 C 351.317 153.048,351.507 153.160,351.507 153.297 C 351.507 153.434,351.948 153.629,352.488 153.731 C 353.027 153.832,353.469 154.035,353.469 154.182 C 353.469 154.329,353.721 154.450,354.029 154.450 C 354.338 154.450,354.590 154.583,354.590 154.747 C 354.590 154.910,354.694 154.980,354.820 154.901 C 354.947 154.823,355.261 155.005,355.518 155.305 C 355.776 155.606,356.177 155.851,356.409 155.851 C 356.642 155.851,356.833 155.963,356.833 156.100 C 356.833 156.236,357.242 156.555,357.744 156.808 C 359.104 157.496,359.718 157.900,360.225 158.444 C 360.477 158.714,360.794 158.941,360.930 158.949 C 361.066 158.956,361.682 159.460,362.299 160.068 C 362.915 160.676,363.534 161.174,363.673 161.175 C 363.931 161.177,367.204 164.424,367.204 164.677 C 367.204 164.814,368.114 165.933,368.816 166.661 C 369.008 166.860,369.166 167.159,369.166 167.324 C 369.166 167.489,369.284 167.624,369.428 167.624 C 369.571 167.624,369.779 167.908,369.888 168.255 C 369.998 168.602,370.292 169.075,370.542 169.306 C 371.058 169.784,372.530 172.640,372.530 173.164 C 372.530 173.355,372.646 173.511,372.788 173.511 C 372.930 173.511,373.135 173.921,373.243 174.422 C 373.352 174.923,373.558 175.407,373.700 175.498 C 373.843 175.589,373.980 175.936,374.005 176.269 C 374.030 176.602,374.150 176.875,374.271 176.875 C 374.393 176.875,374.492 177.190,374.492 177.575 C 374.492 177.961,374.618 178.276,374.772 178.276 C 374.926 178.276,375.053 178.521,375.053 178.820 C 375.053 179.119,375.173 179.439,375.321 179.530 C 375.468 179.621,375.518 179.881,375.431 180.108 C 375.344 180.334,375.458 180.992,375.684 181.570 C 375.911 182.148,376.044 182.767,375.980 182.946 C 375.916 183.124,375.997 183.352,376.159 183.453 C 376.321 183.553,376.454 184.258,376.454 185.020 C 376.454 185.782,376.562 186.405,376.695 186.405 C 377.166 186.405,377.325 193.918,377.442 221.724 C 377.622 264.624,377.741 270.473,378.445 271.083 C 378.758 271.354,379.021 271.680,379.031 271.808 C 379.076 272.412,379.364 272.740,379.848 272.740 C 380.140 272.740,380.378 272.851,380.378 272.988 C 380.378 273.124,380.599 273.313,380.869 273.408 C 381.139 273.503,381.535 273.661,381.749 273.758 C 382.024 273.882,382.070 273.821,381.905 273.547 C 381.717 273.235,381.753 273.226,382.090 273.498 C 382.682 273.977,385.144 273.565,385.144 272.988 C 385.144 272.851,385.310 272.740,385.514 272.740 C 385.997 272.740,387.106 271.458,387.106 270.899 C 387.106 270.660,387.224 270.537,387.368 270.626 C 387.785 270.884,387.804 270.020,387.716 254.520 C 387.670 246.426,387.583 228.704,387.523 215.137 C 387.416 190.921,387.287 185.284,386.844 185.284 C 386.636 185.284,386.224 182.250,386.246 180.883 C 386.252 180.544,386.132 180.189,385.980 180.095 C 385.828 180.002,385.704 179.561,385.704 179.117 C 385.704 178.673,385.578 178.231,385.424 178.136 C 385.270 178.041,385.144 177.655,385.144 177.278 C 385.144 176.902,385.035 176.594,384.902 176.594 C 384.770 176.594,384.583 175.933,384.487 175.124 C 384.391 174.316,384.185 173.612,384.028 173.559 C 383.871 173.507,383.742 173.159,383.742 172.787 C 383.742 172.414,383.616 172.109,383.462 172.109 C 383.308 172.109,383.181 171.794,383.181 171.409 C 383.181 171.023,383.069 170.708,382.932 170.708 C 382.795 170.708,382.600 170.266,382.499 169.727 C 382.398 169.187,382.195 168.746,382.048 168.746 C 381.900 168.746,381.780 168.493,381.780 168.185 C 381.780 167.877,381.654 167.624,381.500 167.624 C 381.345 167.624,381.219 167.435,381.219 167.204 C 381.219 166.973,381.109 166.783,380.974 166.783 C 380.839 166.783,380.651 166.397,380.557 165.924 C 380.461 165.446,380.259 165.142,380.101 165.240 C 379.945 165.336,379.818 165.156,379.818 164.838 C 379.818 164.520,379.692 164.261,379.537 164.261 C 379.383 164.261,379.257 164.071,379.257 163.840 C 379.257 163.609,379.133 163.420,378.982 163.420 C 378.831 163.420,378.627 163.101,378.530 162.712 C 378.432 162.323,378.144 161.850,377.889 161.661 C 377.634 161.472,377.188 160.946,376.897 160.491 C 376.606 160.036,376.072 159.368,375.710 159.007 C 375.349 158.645,375.053 158.236,375.053 158.098 C 375.053 157.763,369.818 152.488,369.485 152.488 C 369.342 152.488,368.821 152.110,368.326 151.648 C 367.832 151.186,367.294 150.890,367.132 150.990 C 366.959 151.097,366.920 151.039,367.037 150.849 C 367.147 150.671,367.123 150.526,366.983 150.526 C 366.843 150.526,366.468 150.305,366.149 150.035 C 365.830 149.765,365.320 149.337,365.015 149.082 C 364.710 148.828,364.195 148.536,363.870 148.433 C 363.545 148.330,363.280 148.128,363.280 147.984 C 363.280 147.840,363.041 147.722,362.749 147.722 C 362.457 147.722,362.146 147.533,362.057 147.302 C 361.968 147.071,361.569 146.882,361.170 146.882 C 360.757 146.882,360.518 146.761,360.617 146.601 C 360.712 146.447,360.593 146.321,360.353 146.321 C 360.113 146.321,359.916 146.195,359.916 146.041 C 359.916 145.886,359.664 145.760,359.355 145.760 C 359.047 145.760,358.795 145.648,358.795 145.510 C 358.795 145.373,358.479 145.181,358.094 145.085 C 357.708 144.988,357.393 144.785,357.393 144.634 C 357.393 144.483,357.148 144.359,356.849 144.359 C 356.550 144.359,356.226 144.231,356.129 144.074 C 356.032 143.917,355.846 143.855,355.715 143.936 C 355.583 144.017,355.284 143.892,355.049 143.657 C 354.815 143.422,354.237 143.153,353.765 143.059 C 353.294 142.964,352.908 142.777,352.908 142.642 C 352.908 142.507,352.593 142.397,352.207 142.397 C 351.822 142.397,351.507 142.301,351.507 142.185 C 351.507 141.835,349.842 141.209,349.382 141.385 C 349.139 141.479,349.028 141.430,349.126 141.272 C 349.220 141.120,349.038 140.995,348.720 140.995 C 348.403 140.995,348.143 140.869,348.143 140.715 C 348.143 140.561,347.701 140.434,347.162 140.434 C 346.622 140.434,346.181 140.323,346.181 140.186 C 346.181 140.049,345.616 139.853,344.926 139.749 C 344.236 139.646,343.598 139.442,343.508 139.297 C 343.418 139.152,342.981 139.033,342.537 139.033 C 342.092 139.033,341.651 138.907,341.556 138.753 C 341.460 138.598,341.073 138.472,340.694 138.472 C 340.316 138.472,339.787 138.354,339.520 138.209 C 338.803 137.821,337.476 137.533,336.440 137.541 C 335.939 137.544,335.529 137.440,335.529 137.309 C 335.529 137.178,334.961 137.071,334.268 137.071 C 333.574 137.071,333.006 136.945,333.006 136.790 C 333.006 136.636,332.509 136.510,331.902 136.510 C 331.294 136.510,330.727 136.398,330.642 136.260 C 330.558 136.123,329.226 135.920,327.683 135.810 C 326.140 135.699,324.877 135.496,324.877 135.359 C 324.877 135.221,324.057 135.109,323.055 135.109 C 322.028 135.109,321.233 134.986,321.233 134.828 C 321.233 134.664,320.258 134.548,318.867 134.548 C 317.552 134.548,316.422 134.420,316.323 134.260 C 316.226 134.102,315.745 133.981,315.256 133.991 C 312.563 134.045,304.415 133.590,304.415 133.386 C 304.415 133.254,301.009 133.146,296.847 133.146 C 291.988 133.146,289.278 133.046,289.278 132.866 C 289.278 132.684,285.535 132.586,278.610 132.586 C 271.744 132.586,268.002 132.683,268.111 132.859 C 268.219 133.035,264.557 133.161,257.896 133.210 L 247.512 133.287 247.512 74.352 L 247.512 15.417 249.544 15.407 C 250.662 15.401,254.257 15.406,257.533 15.417 C 261.465 15.430,263.490 15.338,263.490 15.146 C 263.490 14.987,263.679 14.856,263.910 14.856 C 264.142 14.856,264.331 14.730,264.331 14.576 C 264.331 14.422,264.583 14.296,264.891 14.296 C 265.200 14.296,265.452 14.122,265.452 13.910 C 265.452 13.697,265.641 13.366,265.872 13.174 C 267.100 12.155,266.084 6.633,264.597 6.244 C 264.296 6.166,264.050 5.990,264.050 5.854 C 264.050 5.718,263.672 5.606,263.210 5.606 C 262.747 5.606,262.369 5.475,262.369 5.316 C 262.369 5.118,256.034 5.036,242.467 5.060 C 230.688 5.081,222.565 5.199,222.565 5.350 M354.154 5.351 C 354.067 5.491,353.744 5.606,353.436 5.606 C 353.127 5.606,352.953 5.732,353.048 5.886 C 353.144 6.041,353.016 6.167,352.765 6.167 C 350.540 6.167,349.768 11.792,351.733 13.687 C 353.585 15.472,353.383 15.435,361.257 15.417 C 365.222 15.407,368.812 15.403,369.236 15.408 L 370.007 15.417 370.007 76.562 C 370.007 137.418,370.041 139.874,370.892 139.874 C 371.022 139.874,371.128 140.009,371.128 140.174 C 371.128 140.562,371.841 141.275,372.229 141.275 C 372.395 141.275,372.531 141.370,372.532 141.486 C 372.544 142.605,376.887 142.646,377.856 141.535 C 377.933 141.447,378.219 141.292,378.493 141.191 C 378.766 141.090,379.072 140.784,379.173 140.511 C 379.274 140.238,379.429 139.951,379.517 139.874 C 380.372 139.128,380.378 138.639,380.378 76.948 L 380.378 15.417 381.570 15.402 C 382.225 15.394,385.505 15.400,388.858 15.416 C 392.947 15.435,394.954 15.348,394.954 15.151 C 394.954 14.989,395.144 14.856,395.375 14.856 C 395.606 14.856,395.795 14.730,395.795 14.576 C 395.795 14.422,395.987 14.296,396.222 14.296 C 396.456 14.296,396.792 13.980,396.968 13.595 C 397.143 13.210,397.393 12.894,397.522 12.894 C 397.652 12.894,397.758 11.822,397.758 10.512 C 397.758 9.201,397.659 8.129,397.539 8.129 C 397.418 8.129,397.173 7.741,396.994 7.266 C 396.815 6.791,396.409 6.335,396.092 6.252 C 395.775 6.169,395.515 5.990,395.515 5.854 C 395.515 5.718,395.137 5.606,394.674 5.606 C 394.212 5.606,393.833 5.475,393.833 5.315 C 393.833 4.942,354.385 4.978,354.154 5.351 M13.455 7.298 C 13.455 7.447,13.139 7.568,12.754 7.568 C 12.369 7.568,12.053 7.679,12.053 7.815 C 12.053 7.950,11.674 8.218,11.210 8.410 C 10.538 8.689,10.332 8.979,10.193 9.846 C 10.098 10.443,9.909 10.932,9.775 10.932 C 9.641 10.932,9.530 11.563,9.530 12.334 C 9.530 13.104,9.641 13.735,9.776 13.735 C 9.911 13.735,10.098 14.121,10.192 14.592 C 10.389 15.574,10.972 16.258,11.613 16.258 C 11.855 16.258,12.053 16.384,12.053 16.538 C 12.053 16.692,12.242 16.819,12.474 16.819 C 12.705 16.819,12.894 16.945,12.894 17.099 C 12.894 17.277,15.183 17.379,19.201 17.379 L 25.508 17.379 25.508 75.683 L 25.508 133.987 15.714 133.987 C 9.487 133.987,5.856 134.089,5.746 134.268 C 5.651 134.422,5.265 134.548,4.889 134.548 C 4.513 134.548,4.205 134.659,4.205 134.796 C 4.205 134.932,3.943 135.112,3.623 135.195 C 3.303 135.279,2.973 135.609,2.890 135.929 C 2.806 136.249,2.626 136.510,2.490 136.510 C 2.354 136.510,2.242 136.826,2.242 137.211 C 2.242 137.596,2.116 137.912,1.962 137.912 C 1.808 137.912,1.682 138.542,1.682 139.313 C 1.682 140.084,1.808 140.715,1.962 140.715 C 2.116 140.715,2.242 140.967,2.242 141.275 C 2.242 141.584,2.355 141.836,2.492 141.836 C 2.630 141.836,2.821 142.151,2.918 142.537 C 3.048 143.054,3.280 143.238,3.806 143.238 C 4.209 143.238,4.443 143.359,4.345 143.518 C 4.249 143.672,4.368 143.798,4.609 143.798 C 4.849 143.798,5.046 143.911,5.046 144.048 C 5.046 144.192,14.405 144.341,27.036 144.399 C 44.145 144.477,49.104 144.577,49.376 144.849 C 49.593 145.066,50.510 145.200,51.773 145.200 C 52.950 145.200,53.819 145.319,53.819 145.480 C 53.819 145.634,54.387 145.760,55.081 145.760 C 55.774 145.760,56.342 145.875,56.342 146.015 C 56.342 146.156,57.414 146.360,58.725 146.469 C 60.035 146.578,61.107 146.779,61.107 146.915 C 61.107 147.051,61.423 147.162,61.808 147.162 C 62.193 147.162,62.509 147.288,62.509 147.442 C 62.509 147.596,62.950 147.722,63.490 147.722 C 64.029 147.722,64.471 147.838,64.471 147.978 C 64.471 148.119,64.786 148.199,65.172 148.157 C 65.557 148.115,65.872 148.189,65.872 148.322 C 65.872 148.455,66.188 148.563,66.573 148.563 C 66.959 148.563,67.274 148.703,67.274 148.874 C 67.274 149.044,67.468 149.110,67.705 149.019 C 67.950 148.924,68.205 149.032,68.296 149.269 C 68.383 149.498,68.757 149.685,69.126 149.685 C 69.495 149.685,69.797 149.811,69.797 149.965 C 69.797 150.119,69.998 150.245,70.245 150.245 C 70.697 150.245,72.621 151.059,72.880 151.360 C 72.957 151.449,73.588 151.767,74.282 152.067 C 74.975 152.367,75.606 152.690,75.683 152.785 C 75.760 152.880,76.359 153.192,77.015 153.478 C 77.670 153.763,78.206 154.099,78.206 154.224 C 78.206 154.348,78.395 154.450,78.626 154.450 C 78.858 154.450,79.047 154.556,79.047 154.686 C 79.047 154.816,79.488 155.160,80.028 155.451 C 80.568 155.741,81.009 156.076,81.009 156.195 C 81.009 156.315,81.332 156.412,81.726 156.412 C 82.121 156.412,82.375 156.524,82.290 156.661 C 82.104 156.963,82.647 157.436,83.336 157.573 C 83.614 157.628,83.827 157.778,83.809 157.905 C 83.774 158.146,84.412 158.750,86.035 160.010 C 87.211 160.924,89.543 163.265,90.680 164.672 C 91.142 165.245,92.025 166.250,92.642 166.906 C 94.066 168.419,95.025 169.642,95.025 169.944 C 95.025 170.074,95.170 170.090,95.348 169.980 C 95.534 169.865,95.596 169.902,95.494 170.067 C 95.397 170.225,95.629 170.718,96.011 171.162 C 96.393 171.606,96.706 172.071,96.706 172.196 C 96.706 172.321,96.852 172.333,97.030 172.223 C 97.222 172.104,97.278 172.145,97.167 172.325 C 96.952 172.672,97.518 174.071,97.873 174.071 C 98.002 174.071,98.108 174.261,98.108 174.492 C 98.108 174.723,98.232 174.912,98.383 174.912 C 98.534 174.912,98.737 175.228,98.834 175.613 C 98.930 175.999,99.122 176.314,99.260 176.314 C 99.397 176.314,99.509 176.508,99.509 176.746 C 99.509 177.164,99.715 177.484,100.648 178.524 C 100.889 178.792,101.036 179.162,100.975 179.345 C 100.914 179.528,101.001 179.678,101.168 179.678 C 101.335 179.678,101.472 179.930,101.472 180.238 C 101.472 180.547,101.598 180.799,101.752 180.799 C 101.906 180.799,102.032 180.988,102.032 181.219 C 102.032 181.451,102.166 181.640,102.329 181.640 C 102.492 181.640,102.559 181.748,102.477 181.881 C 102.300 182.167,102.921 183.597,103.224 183.600 C 103.339 183.601,103.434 183.854,103.434 184.163 C 103.434 184.471,103.554 184.723,103.701 184.723 C 103.849 184.723,104.052 185.166,104.154 185.707 C 104.255 186.249,104.450 186.761,104.587 186.845 C 104.723 186.930,104.835 187.244,104.835 187.543 C 104.835 187.842,104.931 188.087,105.047 188.087 C 105.314 188.087,105.851 189.345,106.095 190.540 C 106.198 191.041,106.398 191.451,106.539 191.451 C 106.681 191.451,106.797 191.766,106.797 192.151 C 106.797 192.537,106.924 192.852,107.078 192.852 C 107.232 192.852,107.358 193.167,107.358 193.553 C 107.358 193.938,107.477 194.254,107.621 194.254 C 107.766 194.254,107.969 194.821,108.074 195.515 C 108.178 196.209,108.374 196.776,108.511 196.776 C 108.648 196.776,108.760 197.092,108.760 197.477 C 108.760 197.863,108.886 198.178,109.040 198.178 C 109.194 198.178,109.320 198.556,109.320 199.019 C 109.320 199.481,109.461 199.860,109.633 199.860 C 109.808 199.860,109.882 200.107,109.800 200.420 C 109.719 200.728,109.767 201.051,109.907 201.137 C 110.047 201.224,110.161 201.602,110.161 201.979 C 110.161 202.355,110.287 202.663,110.441 202.663 C 110.596 202.663,110.722 202.978,110.722 203.364 C 110.722 203.749,110.848 204.064,111.002 204.064 C 111.156 204.064,111.282 204.372,111.282 204.749 C 111.282 205.125,111.392 205.501,111.526 205.583 C 111.660 205.666,111.851 206.241,111.950 206.861 C 112.049 207.481,112.255 207.989,112.407 207.989 C 112.559 207.989,112.684 208.241,112.684 208.549 C 112.684 208.858,112.794 209.110,112.928 209.110 C 113.063 209.110,113.254 209.615,113.352 210.231 C 113.451 210.848,113.656 211.352,113.808 211.352 C 113.961 211.352,114.085 211.605,114.085 211.913 C 114.085 212.221,114.181 212.474,114.297 212.474 C 114.414 212.474,114.683 212.884,114.896 213.385 C 115.863 215.666,116.183 216.273,116.529 216.485 C 116.733 216.610,116.827 216.831,116.738 216.976 C 116.648 217.121,116.709 217.239,116.872 217.239 C 117.035 217.239,117.169 217.440,117.169 217.686 C 117.169 218.259,118.003 219.766,118.650 220.364 C 118.925 220.618,119.117 220.933,119.076 221.064 C 118.980 221.377,120.028 223.125,120.313 223.125 C 120.434 223.125,120.533 223.315,120.533 223.546 C 120.533 223.777,120.680 223.966,120.860 223.966 C 121.039 223.966,121.113 224.040,121.023 224.130 C 120.933 224.220,121.069 224.546,121.326 224.855 C 121.584 225.163,122.015 225.676,122.285 225.995 C 122.554 226.314,122.775 226.694,122.775 226.840 C 122.775 226.986,123.153 227.459,123.616 227.891 C 124.078 228.323,124.457 228.789,124.457 228.926 C 124.457 229.063,124.898 229.643,125.438 230.216 C 125.978 230.788,126.419 231.382,126.419 231.535 C 126.419 231.689,126.608 231.815,126.840 231.815 C 127.071 231.815,127.245 231.910,127.227 232.025 C 127.135 232.608,127.314 232.916,127.842 233.083 C 128.162 233.185,128.357 233.334,128.276 233.416 C 128.070 233.621,128.826 234.338,129.249 234.338 C 129.440 234.338,129.523 234.410,129.434 234.499 C 129.261 234.672,134.277 239.718,136.240 241.345 C 136.891 241.885,137.844 242.737,138.359 243.238 C 138.874 243.739,139.419 244.149,139.571 244.149 C 139.724 244.149,140.164 244.464,140.549 244.849 C 140.935 245.235,141.382 245.550,141.543 245.550 C 141.704 245.550,141.836 245.690,141.836 245.860 C 141.836 246.031,142.032 246.096,142.271 246.004 C 142.510 245.912,142.644 245.937,142.568 246.060 C 142.492 246.183,142.759 246.528,143.160 246.828 C 143.562 247.127,144.044 247.524,144.232 247.709 C 144.419 247.895,144.650 247.968,144.746 247.873 C 144.841 247.777,144.919 247.846,144.919 248.026 C 144.919 248.206,145.109 248.353,145.340 248.353 C 145.571 248.353,145.763 248.448,145.766 248.563 C 145.769 248.679,146.400 249.147,147.167 249.602 C 147.935 250.058,148.563 250.531,148.563 250.654 C 148.563 250.776,148.816 250.876,149.124 250.876 C 149.432 250.876,149.685 251.000,149.685 251.151 C 149.685 251.302,150.000 251.505,150.385 251.602 C 150.771 251.699,151.086 251.890,151.086 252.028 C 151.086 252.165,151.338 252.278,151.647 252.278 C 151.955 252.278,152.207 252.404,152.207 252.558 C 152.207 252.712,152.397 252.838,152.628 252.838 C 152.859 252.838,153.048 252.940,153.048 253.064 C 153.048 253.189,153.584 253.525,154.240 253.810 C 154.895 254.096,155.494 254.411,155.571 254.510 C 155.772 254.767,157.700 255.641,158.066 255.641 C 158.236 255.641,158.374 255.767,158.374 255.922 C 158.374 256.076,158.711 256.202,159.122 256.202 C 159.533 256.202,159.787 256.284,159.687 256.384 C 159.426 256.645,160.926 257.372,161.372 257.201 C 161.576 257.123,161.898 257.307,162.088 257.611 C 162.278 257.915,162.648 258.164,162.910 258.164 C 163.172 258.164,163.456 258.276,163.540 258.413 C 163.625 258.549,164.137 258.744,164.678 258.846 C 165.219 258.947,165.662 259.151,165.662 259.298 C 165.662 259.445,165.915 259.566,166.223 259.566 C 166.531 259.566,166.783 259.692,166.783 259.846 C 166.783 260.000,167.099 260.126,167.484 260.126 C 167.870 260.126,168.185 260.242,168.185 260.384 C 168.185 260.526,168.595 260.726,169.096 260.828 C 170.291 261.072,171.549 261.610,171.549 261.876 C 171.549 261.993,171.857 262.088,172.233 262.088 C 172.609 262.088,172.993 262.211,173.085 262.360 C 173.178 262.510,173.879 262.716,174.644 262.817 C 175.408 262.918,176.034 263.111,176.034 263.246 C 176.034 263.380,176.349 263.490,176.734 263.490 C 177.120 263.490,177.435 263.616,177.435 263.770 C 177.435 263.924,177.751 264.050,178.136 264.050 C 178.521 264.050,178.837 264.170,178.837 264.317 C 178.837 264.463,179.594 264.669,180.519 264.774 C 181.444 264.878,182.200 265.074,182.200 265.208 C 182.200 265.342,182.516 265.452,182.901 265.452 C 183.287 265.452,183.602 265.578,183.602 265.732 C 183.602 265.886,183.973 266.013,184.426 266.013 C 184.880 266.013,185.321 266.126,185.407 266.265 C 185.493 266.404,186.320 266.606,187.246 266.713 C 188.172 266.821,188.999 267.022,189.085 267.161 C 189.171 267.300,189.605 267.414,190.049 267.414 C 190.493 267.414,190.930 267.533,191.020 267.678 C 191.110 267.823,192.063 268.029,193.139 268.135 C 194.215 268.241,195.095 268.437,195.095 268.572 C 195.095 268.706,195.599 268.816,196.216 268.816 C 196.833 268.816,197.337 268.942,197.337 269.096 C 197.337 269.250,197.905 269.376,198.598 269.376 C 199.292 269.376,199.860 269.487,199.860 269.623 C 199.860 269.759,201.058 269.960,202.522 270.070 C 203.987 270.180,205.256 270.384,205.342 270.524 C 205.428 270.663,206.052 270.778,206.727 270.778 C 207.403 270.778,208.023 270.887,208.106 271.021 C 208.189 271.155,208.959 271.271,209.818 271.279 C 210.677 271.286,211.532 271.418,211.717 271.571 C 211.902 271.724,213.662 271.941,215.627 272.052 C 217.593 272.164,219.201 272.364,219.201 272.498 C 219.201 272.631,220.266 272.740,221.567 272.740 C 222.869 272.740,224.008 272.861,224.099 273.009 C 224.191 273.156,225.606 273.277,227.244 273.277 C 228.935 273.277,230.348 273.403,230.514 273.569 C 230.922 273.977,231.332 273.935,231.077 273.511 C 230.912 273.236,230.956 273.233,231.280 273.495 C 231.698 273.833,246.885 274.170,247.778 273.861 C 248.405 273.644,250.315 271.644,250.315 271.204 C 250.315 270.988,250.441 270.733,250.596 270.638 C 251.103 270.324,250.933 267.391,250.378 266.886 C 250.104 266.637,249.661 266.088,249.394 265.667 C 249.126 265.245,248.593 264.822,248.209 264.725 C 247.826 264.629,247.512 264.438,247.512 264.300 C 247.512 264.163,247.134 264.050,246.671 264.050 C 246.209 264.050,245.830 264.006,245.830 263.952 C 245.830 263.522,246.498 262.088,246.699 262.088 C 247.033 262.088,247.037 155.377,246.702 155.170 C 246.565 155.085,246.366 154.668,246.260 154.242 C 245.975 153.099,245.307 152.500,244.101 152.308 C 243.511 152.213,243.027 152.026,243.027 151.891 C 243.027 151.757,242.452 151.647,241.749 151.647 C 240.969 151.647,240.539 151.756,240.645 151.927 C 240.740 152.081,240.558 152.207,240.241 152.207 C 239.366 152.207,239.297 152.227,238.529 152.681 C 236.905 153.640,237.001 150.125,237.001 208.806 C 237.001 251.706,237.072 262.766,237.351 262.859 C 239.064 263.430,232.725 263.674,230.113 263.138 C 229.716 263.056,227.257 262.899,224.647 262.788 C 222.037 262.678,219.860 262.475,219.808 262.338 C 219.757 262.201,218.913 262.088,217.933 262.088 C 216.953 262.088,216.073 261.962,215.978 261.808 C 215.882 261.654,214.999 261.528,214.015 261.528 C 213.032 261.528,212.166 261.430,212.092 261.310 C 212.018 261.190,211.438 261.107,210.803 261.125 C 210.168 261.144,209.583 261.052,209.503 260.923 C 209.423 260.793,208.741 260.687,207.989 260.687 C 207.236 260.687,206.542 260.561,206.447 260.406 C 206.352 260.252,205.651 260.126,204.889 260.126 C 204.127 260.126,203.504 260.016,203.504 259.881 C 203.504 259.616,201.122 259.236,199.650 259.266 C 199.149 259.277,198.739 259.159,198.739 259.005 C 198.739 258.851,198.171 258.725,197.477 258.725 C 196.783 258.725,196.216 258.598,196.216 258.444 C 196.216 258.290,195.845 258.164,195.391 258.164 C 194.938 258.164,194.495 258.048,194.407 257.906 C 194.320 257.764,193.429 257.560,192.429 257.453 C 191.428 257.345,190.610 257.146,190.610 257.010 C 190.610 256.874,190.168 256.762,189.629 256.762 C 189.089 256.762,188.648 256.650,188.648 256.513 C 188.648 256.284,187.450 255.987,185.941 255.840 C 185.609 255.808,185.396 255.687,185.467 255.571 C 185.539 255.456,185.148 255.361,184.600 255.361 C 184.051 255.361,183.602 255.235,183.602 255.081 C 183.602 254.926,183.287 254.800,182.901 254.800 C 182.516 254.800,182.200 254.674,182.200 254.520 C 182.200 254.366,181.893 254.240,181.516 254.240 C 181.140 254.240,180.759 254.121,180.669 253.976 C 180.579 253.830,179.939 253.627,179.247 253.523 C 178.555 253.419,177.920 253.222,177.836 253.086 C 177.751 252.950,177.374 252.838,176.998 252.838 C 176.622 252.838,176.314 252.712,176.314 252.558 C 176.314 252.404,176.139 252.278,175.926 252.278 C 175.712 252.278,175.176 252.089,174.734 251.859 C 174.293 251.628,173.718 251.439,173.457 251.438 C 173.197 251.437,172.905 251.310,172.810 251.156 C 172.715 251.002,172.392 250.876,172.093 250.876 C 171.794 250.876,171.549 250.735,171.549 250.563 C 171.549 250.388,171.302 250.315,170.988 250.397 C 170.680 250.477,170.427 250.429,170.427 250.289 C 170.427 250.149,170.237 250.035,170.003 250.035 C 169.555 250.035,168.433 249.478,168.169 249.125 C 168.084 249.011,167.683 248.889,167.279 248.856 C 166.874 248.822,166.597 248.709,166.662 248.603 C 166.808 248.368,166.084 248.073,165.359 248.073 C 165.063 248.073,164.821 247.939,164.821 247.776 C 164.821 247.613,164.695 247.557,164.541 247.652 C 164.387 247.748,164.261 247.705,164.261 247.557 C 164.261 247.238,162.179 246.111,161.589 246.111 C 161.363 246.111,161.177 245.985,161.177 245.830 C 161.177 245.676,160.988 245.550,160.757 245.550 C 160.526 245.550,160.336 245.439,160.336 245.302 C 160.336 245.074,159.453 244.671,158.795 244.599 C 158.521 244.570,157.840 244.079,157.102 243.378 C 156.899 243.185,156.534 243.027,156.292 243.027 C 156.050 243.027,155.851 242.894,155.851 242.730 C 155.851 242.567,155.744 242.500,155.614 242.581 C 155.483 242.661,155.110 242.480,154.784 242.177 C 154.459 241.874,154.062 241.626,153.901 241.626 C 153.740 241.626,153.609 241.508,153.609 241.364 C 153.609 241.221,153.325 241.013,152.978 240.904 C 152.631 240.794,152.144 240.470,151.894 240.184 C 151.645 239.898,151.235 239.664,150.983 239.664 C 150.732 239.664,150.526 239.546,150.526 239.402 C 150.526 239.258,150.242 239.052,149.895 238.944 C 149.548 238.836,148.962 238.386,148.593 237.944 C 148.224 237.502,147.769 237.141,147.583 237.141 C 147.397 237.141,146.861 236.794,146.392 236.370 C 144.523 234.681,142.782 233.201,142.116 232.737 C 141.731 232.469,141.151 231.964,140.827 231.616 C 140.503 231.268,140.156 231.065,140.056 231.166 C 139.956 231.266,139.874 231.199,139.874 231.018 C 139.874 230.836,138.865 229.658,137.631 228.400 C 136.398 227.141,135.389 226.018,135.389 225.904 C 135.389 225.790,134.979 225.256,134.478 224.717 C 133.327 223.481,132.163 222.067,131.550 221.163 C 131.289 220.778,130.848 220.259,130.569 220.009 C 130.291 219.760,130.063 219.346,130.063 219.089 C 130.063 218.833,129.874 218.550,129.643 218.462 C 129.411 218.373,129.222 218.076,129.222 217.802 C 129.222 217.528,128.989 217.243,128.704 217.169 C 128.410 217.092,128.115 216.684,128.023 216.225 C 127.933 215.781,127.629 215.165,127.348 214.856 C 126.759 214.211,123.336 207.449,123.336 206.932 C 123.336 206.742,123.215 206.587,123.068 206.587 C 122.921 206.587,122.717 206.144,122.616 205.603 C 122.514 205.062,122.319 204.550,122.183 204.465 C 122.046 204.381,121.934 204.067,121.934 203.768 C 121.934 203.468,121.808 203.224,121.654 203.224 C 121.500 203.224,121.374 202.908,121.374 202.523 C 121.374 202.137,121.255 201.822,121.110 201.822 C 120.966 201.822,120.762 201.254,120.658 200.561 C 120.554 199.867,120.357 199.299,120.220 199.299 C 120.084 199.299,119.972 198.984,119.972 198.598 C 119.972 198.213,119.846 197.898,119.692 197.898 C 119.537 197.898,119.411 197.575,119.411 197.180 C 119.411 196.786,119.301 196.531,119.167 196.614 C 119.032 196.697,118.837 196.011,118.732 195.089 C 118.628 194.167,118.423 193.413,118.276 193.413 C 118.130 193.413,118.010 193.097,118.010 192.712 C 118.010 192.327,117.884 192.011,117.730 192.011 C 117.575 192.011,117.450 191.790,117.451 191.521 C 117.452 190.878,116.528 188.254,116.258 188.134 C 116.142 188.082,116.048 187.735,116.048 187.363 C 116.048 186.990,115.953 186.684,115.837 186.683 C 115.722 186.682,115.392 185.925,115.104 185.001 C 114.816 184.077,114.469 183.322,114.333 183.322 C 114.197 183.322,114.085 183.069,114.085 182.761 C 114.085 182.453,113.980 182.200,113.852 182.200 C 113.724 182.200,113.377 181.444,113.081 180.519 C 112.786 179.594,112.449 178.837,112.334 178.837 C 112.218 178.837,112.123 178.658,112.123 178.440 C 112.123 178.221,111.979 177.994,111.803 177.936 C 111.626 177.877,111.443 177.458,111.394 177.005 C 111.346 176.552,111.175 176.138,111.014 176.084 C 110.853 176.031,110.722 175.808,110.722 175.590 C 110.722 175.371,110.596 175.193,110.441 175.193 C 110.287 175.193,110.161 174.940,110.161 174.632 C 110.161 174.324,110.054 174.071,109.923 174.071 C 109.793 174.071,109.449 173.535,109.160 172.880 C 108.871 172.225,108.554 171.626,108.455 171.549 C 108.356 171.472,108.186 171.125,108.078 170.778 C 107.970 170.431,107.763 170.147,107.620 170.147 C 107.476 170.147,107.358 169.903,107.358 169.605 C 107.358 169.307,107.106 168.984,106.797 168.886 C 106.489 168.788,106.237 168.480,106.237 168.200 C 106.237 167.921,106.048 167.536,105.816 167.344 C 105.585 167.152,105.396 166.821,105.396 166.609 C 105.396 166.397,105.290 166.223,105.160 166.223 C 105.030 166.223,104.686 165.781,104.395 165.242 C 104.105 164.702,103.769 164.261,103.650 164.261 C 103.531 164.261,103.434 164.129,103.434 163.968 C 103.434 163.806,103.118 163.359,102.733 162.974 C 102.348 162.588,102.032 162.148,102.032 161.996 C 102.032 161.844,101.591 161.278,101.051 160.738 C 100.512 160.199,100.070 159.644,100.070 159.505 C 100.070 159.115,93.991 153.054,93.796 153.249 C 93.701 153.344,93.623 153.270,93.623 153.084 C 93.623 152.694,91.354 150.459,91.157 150.655 C 91.085 150.727,90.696 150.435,90.292 150.005 C 89.889 149.575,89.180 148.982,88.718 148.688 C 88.255 148.394,87.712 147.930,87.510 147.657 C 87.309 147.385,86.962 147.162,86.740 147.162 C 86.517 147.162,86.335 147.028,86.335 146.865 C 86.335 146.702,86.209 146.646,86.055 146.741 C 85.900 146.837,85.774 146.781,85.774 146.618 C 85.774 146.455,85.585 146.321,85.354 146.321 C 85.123 146.321,84.933 146.210,84.933 146.074 C 84.933 145.938,84.208 145.467,83.322 145.027 C 82.435 144.587,81.506 144.004,81.257 143.733 C 81.008 143.461,80.409 143.160,79.926 143.063 C 79.442 142.966,79.047 142.777,79.047 142.642 C 79.047 142.507,78.818 142.397,78.539 142.397 C 78.260 142.397,77.764 142.147,77.436 141.842 C 77.109 141.537,76.329 141.206,75.702 141.106 C 75.075 141.005,74.562 140.813,74.562 140.679 C 74.562 140.544,74.247 140.434,73.861 140.434 C 73.476 140.434,73.160 140.308,73.160 140.154 C 73.160 140.000,72.845 139.874,72.460 139.874 C 72.074 139.874,71.759 139.745,71.759 139.588 C 71.759 139.431,71.441 139.360,71.052 139.430 C 70.654 139.503,70.417 139.444,70.508 139.296 C 70.598 139.151,70.348 139.033,69.953 139.033 C 69.559 139.033,69.236 138.907,69.236 138.753 C 69.236 138.598,68.795 138.472,68.255 138.472 C 67.715 138.472,67.274 138.331,67.274 138.159 C 67.274 137.977,66.983 137.902,66.575 137.980 C 66.190 138.054,65.741 137.951,65.576 137.752 C 65.411 137.553,65.034 137.437,64.739 137.494 C 64.444 137.550,64.129 137.479,64.040 137.334 C 63.950 137.189,63.443 137.071,62.913 137.071 C 62.382 137.071,61.948 136.945,61.948 136.790 C 61.948 136.636,61.469 136.510,60.883 136.510 C 60.297 136.510,59.696 136.389,59.548 136.240 C 59.399 136.092,58.050 135.884,56.549 135.778 C 55.047 135.673,53.819 135.479,53.819 135.348 C 53.819 135.216,52.936 135.109,51.857 135.109 C 50.778 135.109,49.895 134.991,49.895 134.846 C 49.895 134.700,48.503 134.578,46.743 134.570 C 44.875 134.561,43.552 134.440,43.496 134.272 C 43.438 134.098,41.932 133.987,39.640 133.987 L 35.879 133.987 35.879 75.683 L 35.879 17.379 38.052 17.374 C 52.602 17.341,73.721 17.700,73.721 17.982 C 73.721 18.113,76.055 18.220,78.907 18.220 C 82.177 18.220,84.093 18.324,84.093 18.500 C 84.093 18.668,85.208 18.781,86.879 18.781 C 88.412 18.781,89.733 18.890,89.816 19.025 C 89.899 19.159,91.767 19.361,93.968 19.474 C 96.459 19.602,98.044 19.801,98.169 20.001 C 98.320 20.240,98.513 20.235,98.927 19.978 C 99.277 19.761,99.546 19.735,99.653 19.908 C 99.746 20.059,100.194 20.182,100.647 20.182 C 101.101 20.182,101.472 20.309,101.472 20.465 C 101.472 20.620,102.008 20.750,102.663 20.754 C 104.490 20.764,105.086 20.844,104.950 21.064 C 104.882 21.174,105.838 21.352,107.073 21.460 C 108.309 21.568,109.320 21.766,109.320 21.900 C 109.320 22.035,109.888 22.144,110.582 22.144 C 111.275 22.144,111.843 22.264,111.843 22.411 C 111.843 22.557,112.600 22.763,113.525 22.867 C 114.450 22.972,115.207 23.168,115.207 23.302 C 115.207 23.436,115.515 23.546,115.891 23.546 C 116.267 23.546,116.653 23.672,116.748 23.826 C 116.844 23.980,117.293 24.107,117.746 24.107 C 118.199 24.107,118.570 24.218,118.570 24.355 C 118.570 24.492,119.135 24.688,119.825 24.792 C 120.515 24.895,121.154 25.099,121.243 25.244 C 121.333 25.389,121.651 25.508,121.951 25.508 C 122.250 25.508,122.495 25.634,122.495 25.788 C 122.495 25.943,122.810 26.069,123.196 26.069 C 123.581 26.069,123.896 26.185,123.896 26.327 C 123.896 26.469,124.306 26.665,124.807 26.763 C 125.795 26.957,127.026 27.484,127.276 27.819 C 127.361 27.934,127.771 28.056,128.187 28.091 C 128.602 28.125,128.942 28.252,128.942 28.373 C 128.942 28.494,129.446 28.812,130.063 29.079 C 130.680 29.346,131.184 29.651,131.184 29.757 C 131.184 29.862,131.563 30.032,132.025 30.133 C 132.488 30.235,132.866 30.434,132.866 30.576 C 132.866 30.718,133.055 30.834,133.287 30.834 C 133.518 30.834,133.707 30.960,133.707 31.114 C 133.707 31.268,133.896 31.395,134.128 31.395 C 134.359 31.395,134.548 31.507,134.548 31.644 C 134.548 31.782,134.863 31.974,135.249 32.070 C 135.634 32.167,135.950 32.370,135.950 32.521 C 135.950 32.672,136.119 32.796,136.327 32.796 C 136.534 32.796,136.932 33.048,137.211 33.357 C 137.490 33.665,137.868 33.917,138.052 33.917 C 138.235 33.917,138.744 34.225,139.182 34.602 C 139.620 34.979,140.082 35.224,140.207 35.146 C 140.332 35.069,140.434 35.150,140.434 35.327 C 140.434 35.695,141.553 36.697,141.980 36.711 C 142.136 36.716,142.500 37.036,142.790 37.421 C 143.079 37.807,143.467 38.122,143.651 38.122 C 143.836 38.122,144.774 38.879,145.737 39.804 C 146.701 40.729,147.667 41.486,147.886 41.486 C 148.104 41.486,148.283 41.606,148.283 41.753 C 148.283 42.091,149.625 43.448,149.959 43.448 C 150.096 43.448,150.290 43.709,150.392 44.029 C 150.506 44.389,150.732 44.550,150.986 44.452 C 151.211 44.366,151.330 44.401,151.250 44.530 C 151.171 44.659,151.416 45.035,151.797 45.366 C 152.177 45.696,152.488 46.067,152.488 46.189 C 152.488 46.311,152.868 46.635,153.334 46.910 C 153.799 47.185,154.124 47.500,154.055 47.611 C 153.987 47.721,154.300 48.105,154.751 48.464 C 155.202 48.823,155.571 49.283,155.571 49.486 C 155.571 49.688,155.886 50.102,156.272 50.405 C 156.657 50.709,156.973 51.096,156.973 51.267 C 156.973 51.437,157.084 51.577,157.220 51.577 C 157.356 51.577,157.537 51.842,157.622 52.166 C 157.707 52.489,157.889 52.684,158.028 52.599 C 158.166 52.513,158.448 52.874,158.655 53.400 C 158.861 53.926,159.198 54.421,159.403 54.500 C 159.608 54.578,159.776 54.871,159.776 55.150 C 159.776 55.429,160.028 55.839,160.336 56.062 C 160.645 56.284,160.897 56.584,160.897 56.728 C 160.897 56.872,161.212 57.403,161.598 57.909 C 161.983 58.414,162.299 59.025,162.299 59.267 C 162.299 59.508,162.425 59.706,162.579 59.706 C 162.733 59.706,162.859 59.895,162.859 60.126 C 162.859 60.357,162.972 60.547,163.109 60.547 C 163.247 60.547,163.445 60.893,163.550 61.317 C 163.656 61.741,163.970 62.341,164.249 62.649 C 164.528 62.957,164.843 63.525,164.947 63.910 C 165.244 64.999,166.317 67.110,166.698 67.351 C 166.886 67.471,166.961 67.776,166.864 68.028 C 166.753 68.317,166.800 68.418,166.990 68.301 C 167.182 68.182,167.238 68.318,167.145 68.675 C 167.063 68.989,167.136 69.236,167.311 69.236 C 167.484 69.236,167.624 69.552,167.624 69.937 C 167.624 70.322,167.751 70.638,167.905 70.638 C 168.059 70.638,168.185 70.890,168.185 71.198 C 168.185 71.507,168.297 71.759,168.433 71.759 C 168.570 71.759,168.767 72.327,168.871 73.020 C 168.975 73.714,169.179 74.282,169.323 74.282 C 169.468 74.282,169.587 74.597,169.587 74.982 C 169.587 75.368,169.713 75.683,169.867 75.683 C 170.021 75.683,170.147 75.991,170.147 76.367 C 170.147 76.744,170.282 77.135,170.447 77.237 C 170.611 77.339,170.680 77.594,170.599 77.805 C 170.518 78.016,170.573 78.263,170.720 78.354 C 170.867 78.445,170.988 78.883,170.988 79.327 C 170.988 79.772,171.114 80.213,171.268 80.308 C 171.423 80.404,171.549 80.728,171.549 81.029 C 171.549 81.331,171.660 81.796,171.796 82.064 C 172.194 82.849,172.693 85.231,172.517 85.514 C 172.429 85.657,172.490 85.774,172.653 85.774 C 172.818 85.774,172.950 86.330,172.950 87.019 C 172.950 87.704,173.076 88.342,173.231 88.437 C 173.385 88.533,173.511 89.082,173.511 89.659 C 173.511 90.236,173.669 90.878,173.861 91.085 C 174.142 91.387,174.142 91.423,173.861 91.265 C 173.669 91.156,173.511 91.201,173.511 91.364 C 173.511 91.527,173.622 91.661,173.757 91.661 C 173.968 91.661,174.557 100.275,174.428 101.472 C 174.403 101.703,174.294 103.563,174.186 105.606 C 174.078 107.649,173.893 109.320,173.774 109.320 C 173.655 109.320,173.558 109.873,173.558 110.548 C 173.558 111.223,173.428 112.012,173.269 112.300 C 172.925 112.925,172.531 114.867,172.609 115.557 C 172.639 115.827,172.539 116.048,172.386 116.048 C 172.234 116.048,172.109 116.356,172.109 116.732 C 172.109 117.108,171.975 117.499,171.810 117.601 C 171.645 117.703,171.577 117.959,171.658 118.170 C 171.739 118.381,171.621 118.738,171.397 118.963 C 171.172 119.187,170.988 119.625,170.988 119.935 C 170.988 120.246,170.860 120.579,170.703 120.676 C 170.547 120.772,170.491 120.969,170.580 121.113 C 170.668 121.256,170.607 121.374,170.444 121.374 C 170.281 121.374,170.149 121.531,170.152 121.724 C 170.157 122.161,168.682 125.124,168.395 125.251 C 168.280 125.302,168.185 125.586,168.185 125.882 C 168.185 126.177,168.038 126.419,167.858 126.419 C 167.678 126.419,167.605 126.493,167.694 126.583 C 167.784 126.673,167.648 126.979,167.391 127.263 C 166.487 128.264,166.223 128.641,166.223 128.930 C 166.223 129.091,166.097 129.222,165.943 129.222 C 165.788 129.222,165.662 129.398,165.662 129.613 C 165.662 129.827,165.455 130.083,165.202 130.180 C 164.948 130.277,164.810 130.426,164.895 130.510 C 164.979 130.594,164.114 131.591,162.972 132.726 C 161.831 133.860,160.897 134.930,160.897 135.105 C 160.897 135.279,160.771 135.344,160.617 135.249 C 160.463 135.153,160.336 135.201,160.336 135.353 C 160.336 135.506,160.099 135.707,159.808 135.799 C 159.518 135.891,158.888 136.341,158.409 136.799 C 157.930 137.257,157.417 137.631,157.268 137.631 C 157.120 137.631,156.709 137.915,156.355 138.262 C 156.001 138.609,155.238 139.142,154.660 139.447 C 154.082 139.752,153.609 140.099,153.609 140.218 C 153.609 140.337,153.357 140.434,153.048 140.434 C 152.740 140.434,152.488 140.547,152.488 140.684 C 152.488 140.822,152.201 141.006,151.851 141.094 C 151.502 141.182,150.939 141.511,150.602 141.825 C 150.264 142.139,149.731 142.397,149.416 142.397 C 149.101 142.397,148.844 142.509,148.844 142.646 C 148.844 142.783,148.402 142.978,147.863 143.079 C 147.323 143.180,146.882 143.383,146.882 143.531 C 146.882 143.678,146.574 143.798,146.197 143.798 C 145.821 143.798,145.435 143.924,145.340 144.078 C 145.245 144.233,144.866 144.359,144.499 144.359 C 144.132 144.359,143.758 144.478,143.668 144.623 C 143.578 144.768,142.940 144.972,142.250 145.075 C 141.560 145.179,140.995 145.375,140.995 145.512 C 140.995 145.649,140.680 145.760,140.294 145.760 C 139.909 145.760,139.594 145.886,139.594 146.041 C 139.594 146.195,139.152 146.321,138.612 146.321 C 138.073 146.321,137.631 146.441,137.631 146.587 C 137.631 146.733,137.190 146.810,136.650 146.757 C 136.111 146.705,135.669 146.775,135.669 146.912 C 135.669 147.049,135.172 147.162,134.565 147.162 C 133.957 147.162,133.382 147.288,133.287 147.442 C 133.191 147.596,132.438 147.722,131.612 147.722 C 130.786 147.722,130.066 147.854,130.013 148.014 C 129.954 148.190,128.158 148.374,125.504 148.478 C 123.078 148.573,121.093 148.757,121.093 148.887 C 121.093 149.017,119.201 149.124,116.889 149.124 C 114.272 149.124,112.684 149.230,112.684 149.404 C 112.684 149.559,112.361 149.685,111.967 149.685 C 111.560 149.685,111.324 149.806,111.423 149.965 C 111.521 150.124,111.285 150.245,110.878 150.245 C 110.428 150.245,110.161 150.402,110.161 150.666 C 110.161 150.897,110.028 151.086,109.864 151.086 C 109.701 151.086,109.645 151.212,109.741 151.367 C 109.836 151.521,109.780 151.647,109.617 151.647 C 109.454 151.647,109.320 151.955,109.320 152.331 C 109.320 152.707,109.218 153.078,109.093 153.156 C 108.747 153.369,108.686 155.851,109.027 155.851 C 109.188 155.851,109.320 156.104,109.320 156.412 C 109.320 156.720,109.433 156.973,109.570 156.973 C 109.708 156.973,109.899 157.288,109.996 157.673 C 110.126 158.191,110.358 158.374,110.884 158.374 C 111.275 158.374,111.534 158.474,111.459 158.595 C 110.836 159.604,125.491 159.637,126.545 158.629 C 126.692 158.489,127.795 158.374,128.998 158.374 C 130.200 158.374,131.184 158.270,131.184 158.142 C 131.184 158.015,132.414 157.767,133.917 157.593 C 138.011 157.117,139.021 156.939,139.191 156.663 C 139.277 156.525,139.780 156.412,140.311 156.412 C 140.841 156.412,141.275 156.302,141.275 156.168 C 141.275 156.034,142.032 155.838,142.957 155.734 C 143.882 155.629,144.639 155.423,144.639 155.277 C 144.639 155.130,145.018 155.011,145.480 155.011 C 145.943 155.011,146.321 154.884,146.321 154.730 C 146.321 154.576,146.636 154.450,147.022 154.450 C 147.407 154.450,147.722 154.338,147.722 154.201 C 147.722 154.065,148.290 153.868,148.984 153.764 C 149.678 153.660,150.245 153.456,150.245 153.311 C 150.245 153.167,150.431 153.048,150.657 153.048 C 150.884 153.048,151.502 152.805,152.032 152.508 C 152.561 152.210,153.067 152.039,153.155 152.127 C 153.243 152.215,153.392 152.088,153.485 151.845 C 153.579 151.601,153.834 151.471,154.053 151.554 C 154.271 151.638,154.450 151.567,154.450 151.396 C 154.450 151.226,154.765 151.086,155.151 151.086 C 155.536 151.086,155.851 150.979,155.851 150.848 C 155.851 150.717,156.419 150.376,157.113 150.090 C 157.807 149.804,158.374 149.469,158.374 149.347 C 158.374 149.224,158.563 149.124,158.795 149.124 C 159.026 149.124,159.215 149.006,159.215 148.863 C 159.215 148.719,159.497 148.512,159.840 148.403 C 160.461 148.206,161.796 147.343,162.521 146.671 C 162.729 146.479,162.998 146.321,163.118 146.321 C 163.238 146.321,163.733 145.943,164.217 145.480 C 164.701 145.018,165.213 144.639,165.355 144.639 C 165.722 144.639,167.624 142.749,167.624 142.385 C 167.624 142.219,167.751 142.161,167.905 142.256 C 168.059 142.352,168.185 142.293,168.185 142.127 C 168.185 141.960,168.488 141.686,168.859 141.517 C 169.230 141.348,169.764 140.782,170.045 140.260 C 170.327 139.737,170.752 139.248,170.990 139.172 C 171.229 139.097,171.609 138.763,171.837 138.430 C 172.064 138.097,172.533 137.569,172.880 137.257 C 173.227 136.945,173.511 136.592,173.511 136.474 C 173.511 136.356,173.826 135.918,174.212 135.503 C 174.597 135.087,174.912 134.589,174.912 134.397 C 174.912 134.205,175.108 133.972,175.346 133.881 C 175.585 133.789,175.912 133.334,176.074 132.870 C 176.236 132.405,176.483 132.025,176.622 132.025 C 176.761 132.025,176.875 131.836,176.875 131.605 C 176.875 131.374,177.001 131.184,177.155 131.184 C 177.309 131.184,177.435 130.932,177.435 130.624 C 177.435 130.315,177.582 130.063,177.762 130.063 C 177.942 130.063,178.009 129.983,177.911 129.884 C 177.812 129.786,177.981 129.357,178.284 128.930 C 178.588 128.504,178.837 127.953,178.837 127.707 C 178.837 127.461,178.957 127.260,179.104 127.260 C 179.252 127.260,179.455 126.819,179.556 126.279 C 179.657 125.739,179.852 125.298,179.989 125.298 C 180.126 125.298,180.238 125.046,180.238 124.737 C 180.238 124.429,180.350 124.177,180.487 124.177 C 180.623 124.177,180.807 123.830,180.895 123.406 C 181.271 121.588,181.783 119.972,181.984 119.972 C 182.103 119.972,182.200 119.530,182.200 118.991 C 182.200 118.451,182.327 118.010,182.481 118.010 C 182.635 118.010,182.761 117.576,182.761 117.045 C 182.761 116.515,182.878 116.009,183.021 115.920 C 183.163 115.832,183.369 114.626,183.477 113.241 C 183.586 111.855,183.784 110.722,183.918 110.722 C 184.053 110.722,184.163 109.523,184.163 108.059 C 184.163 106.470,184.276 105.396,184.443 105.396 C 184.618 105.396,184.723 103.673,184.723 100.787 C 184.723 98.017,184.611 96.110,184.443 96.006 C 184.289 95.910,184.163 94.712,184.163 93.343 C 184.163 91.973,184.053 90.785,183.919 90.702 C 183.785 90.619,183.586 89.289,183.476 87.745 C 183.367 86.202,183.161 84.867,183.019 84.780 C 182.877 84.692,182.761 84.123,182.761 83.515 C 182.761 82.908,182.635 82.411,182.481 82.411 C 182.327 82.411,182.200 81.977,182.200 81.446 C 182.200 80.916,182.091 80.414,181.957 80.331 C 181.823 80.248,181.628 79.421,181.523 78.493 C 181.418 77.564,181.242 76.804,181.133 76.804 C 181.023 76.804,180.768 76.539,180.565 76.215 C 180.363 75.890,180.332 75.708,180.498 75.811 C 180.665 75.914,180.799 75.795,180.799 75.543 C 180.799 75.294,180.673 75.168,180.519 75.263 C 180.256 75.425,180.114 74.866,180.217 74.071 C 180.242 73.879,180.143 73.721,179.997 73.721 C 179.850 73.721,179.644 73.090,179.537 72.320 C 179.431 71.549,179.230 70.918,179.091 70.918 C 178.951 70.918,178.837 70.680,178.837 70.389 C 178.837 70.099,178.648 69.500,178.418 69.058 C 178.188 68.616,177.998 68.042,177.998 67.781 C 177.997 67.520,177.870 67.229,177.715 67.134 C 177.561 67.039,177.435 66.770,177.435 66.537 C 177.435 66.303,177.251 65.929,177.027 65.704 C 176.802 65.479,176.689 65.110,176.776 64.883 C 176.863 64.656,176.801 64.471,176.637 64.471 C 176.473 64.471,176.257 64.029,176.155 63.490 C 176.054 62.950,175.859 62.509,175.722 62.509 C 175.585 62.509,175.473 62.318,175.473 62.084 C 175.473 61.661,174.929 60.532,174.597 60.266 C 174.501 60.189,174.333 59.716,174.225 59.215 C 174.116 58.714,173.911 58.304,173.769 58.304 C 173.627 58.304,173.511 58.110,173.511 57.872 C 173.511 57.634,173.250 57.161,172.931 56.821 C 172.612 56.480,172.281 55.855,172.195 55.431 C 172.109 55.007,171.929 54.660,171.794 54.660 C 171.659 54.660,171.549 54.471,171.549 54.240 C 171.549 54.008,171.423 53.819,171.268 53.819 C 171.114 53.819,170.988 53.645,170.988 53.433 C 170.988 53.221,170.799 52.890,170.568 52.698 C 170.336 52.506,170.147 52.112,170.147 51.823 C 170.147 51.533,170.024 51.296,169.873 51.296 C 169.722 51.296,169.355 50.823,169.059 50.245 C 168.762 49.667,168.191 48.816,167.790 48.353 C 167.389 47.891,166.989 47.290,166.902 47.018 C 166.814 46.746,166.626 46.595,166.483 46.684 C 166.340 46.772,166.223 46.608,166.223 46.318 C 166.223 46.028,165.939 45.525,165.592 45.200 C 164.790 44.447,164.261 43.801,164.261 43.575 C 164.261 43.477,163.693 42.846,162.999 42.172 C 162.306 41.498,161.738 40.873,161.738 40.783 C 161.738 40.416,156.920 35.473,155.729 34.618 C 155.300 34.310,154.788 33.906,154.592 33.720 C 154.397 33.535,154.158 33.461,154.063 33.557 C 153.967 33.652,153.889 33.527,153.889 33.278 C 153.889 33.028,153.416 32.471,152.838 32.039 C 151.233 30.840,151.108 30.740,150.385 30.063 C 150.014 29.716,149.636 29.432,149.545 29.432 C 149.454 29.432,149.040 29.117,148.624 28.732 C 148.208 28.346,147.709 28.031,147.515 28.031 C 147.321 28.031,147.162 27.897,147.162 27.734 C 147.162 27.571,147.036 27.515,146.882 27.610 C 146.727 27.706,146.601 27.593,146.601 27.360 C 146.601 27.127,146.160 26.726,145.620 26.470 C 145.081 26.214,144.639 25.880,144.639 25.726 C 144.639 25.573,144.443 25.523,144.204 25.615 C 143.955 25.711,143.842 25.664,143.940 25.505 C 144.097 25.251,143.712 25.103,143.147 25.202 C 143.020 25.224,142.995 25.112,143.093 24.954 C 143.191 24.796,143.169 24.667,143.044 24.667 C 142.919 24.667,142.454 24.354,142.010 23.972 C 141.566 23.590,141.092 23.346,140.957 23.430 C 140.821 23.513,140.635 23.384,140.543 23.143 C 140.450 22.902,140.136 22.705,139.844 22.705 C 139.552 22.705,139.313 22.579,139.313 22.425 C 139.313 22.270,139.124 22.144,138.893 22.144 C 138.662 22.144,138.472 22.021,138.472 21.869 C 138.472 21.718,138.157 21.515,137.772 21.419 C 137.386 21.322,137.071 21.123,137.071 20.976 C 137.071 20.830,136.955 20.781,136.813 20.869 C 136.671 20.957,136.365 20.838,136.132 20.605 C 135.900 20.373,135.574 20.182,135.409 20.182 C 135.244 20.182,135.109 20.070,135.109 19.933 C 135.109 19.796,134.667 19.601,134.128 19.500 C 133.588 19.399,133.146 19.195,133.146 19.048 C 133.146 18.901,132.894 18.781,132.586 18.781 C 132.278 18.781,132.025 18.655,132.025 18.500 C 132.025 18.346,131.720 18.220,131.348 18.220 C 130.975 18.220,130.628 18.101,130.577 17.956 C 130.526 17.811,130.106 17.625,129.645 17.542 C 129.183 17.459,128.763 17.263,128.710 17.105 C 128.658 16.947,128.310 16.819,127.937 16.819 C 127.565 16.819,127.260 16.692,127.260 16.538 C 127.260 16.384,127.008 16.258,126.699 16.258 C 126.391 16.258,126.139 16.144,126.139 16.004 C 126.139 15.864,125.901 15.812,125.610 15.888 C 125.319 15.964,124.996 15.889,124.892 15.722 C 124.789 15.554,124.333 15.417,123.880 15.417 C 123.426 15.417,123.055 15.306,123.055 15.171 C 123.055 14.718,120.093 13.836,119.061 13.981 C 118.791 14.019,118.570 13.944,118.570 13.814 C 118.570 13.684,118.229 13.549,117.812 13.514 C 117.395 13.480,116.928 13.326,116.775 13.173 C 116.622 13.020,116.153 12.894,115.735 12.894 C 115.316 12.894,114.931 12.772,114.880 12.622 C 114.828 12.472,113.872 12.264,112.754 12.161 C 111.636 12.057,110.722 11.865,110.722 11.733 C 110.722 11.601,110.084 11.493,109.304 11.493 C 108.430 11.493,107.952 11.385,108.059 11.212 C 108.165 11.041,107.735 10.932,106.954 10.932 C 106.251 10.932,105.676 10.817,105.676 10.675 C 105.676 10.534,104.289 10.329,102.593 10.219 C 100.897 10.109,99.509 9.925,99.509 9.811 C 99.509 9.696,98.658 9.584,97.617 9.562 C 96.577 9.540,95.683 9.397,95.632 9.246 C 95.579 9.089,94.303 8.970,92.675 8.970 C 91.026 8.970,89.684 8.843,89.513 8.672 C 89.326 8.485,88.007 8.407,85.979 8.462 C 84.199 8.510,82.802 8.455,82.874 8.339 C 82.946 8.224,81.042 8.129,78.643 8.129 C 75.922 8.129,74.282 8.023,74.282 7.849 C 74.282 7.666,70.404 7.568,63.210 7.568 C 55.897 7.568,52.137 7.472,52.137 7.283 C 52.137 7.093,45.719 7.004,32.796 7.013 C 20.592 7.023,13.455 7.128,13.455 7.298 M26.840 152.391 C 26.416 152.465,26.069 152.643,26.069 152.787 C 26.069 152.931,25.934 153.048,25.768 153.048 C 25.380 153.048,24.667 153.761,24.667 154.150 C 24.667 154.315,24.541 154.450,24.387 154.450 C 24.233 154.450,24.107 154.695,24.107 154.994 C 24.107 155.293,23.980 155.616,23.826 155.711 C 23.430 155.956,23.439 261.646,23.836 262.387 C 24.120 262.917,23.954 262.929,16.604 262.929 C 9.351 262.929,7.578 263.108,7.571 263.840 C 7.569 263.956,7.309 264.050,6.991 264.050 C 6.674 264.050,6.486 264.168,6.575 264.311 C 6.663 264.454,6.513 264.643,6.241 264.731 C 4.566 265.272,4.523 270.007,6.178 271.630 C 6.801 272.240,7.495 272.740,7.720 272.740 C 7.945 272.740,8.129 272.857,8.129 273.000 C 8.129 273.157,16.272 273.269,28.732 273.283 C 42.403 273.298,49.334 273.210,49.334 273.023 C 49.334 272.867,49.587 272.740,49.895 272.740 C 50.203 272.740,50.456 272.614,50.456 272.460 C 50.456 272.306,50.645 272.179,50.876 272.179 C 51.107 272.179,51.296 272.018,51.296 271.821 C 51.296 271.624,51.550 271.280,51.860 271.056 C 52.457 270.626,52.683 266.013,52.107 266.013 C 51.970 266.013,51.857 265.881,51.857 265.720 C 51.857 265.339,50.568 264.050,50.188 264.050 C 50.027 264.050,49.895 263.924,49.895 263.770 C 49.895 263.616,49.587 263.490,49.211 263.490 C 48.834 263.490,48.451 263.367,48.358 263.217 C 48.256 263.052,45.305 262.942,40.869 262.939 C 34.257 262.935,32.528 262.818,33.567 262.447 C 34.534 262.102,33.977 154.450,33.008 154.450 C 32.892 154.450,32.796 154.315,32.796 154.150 C 32.796 153.773,32.087 153.048,31.718 153.048 C 31.566 153.048,31.399 152.920,31.346 152.764 C 31.241 152.447,28.042 152.183,26.840 152.391 " stroke="none" fill="#747474" fill-rule="evenodd"></path><path id="path1" d="M387.478 207.288 C 387.479 208.367,387.530 208.774,387.591 208.193 C 387.651 207.611,387.650 206.728,387.588 206.231 C 387.527 205.733,387.477 206.209,387.478 207.288 M377.366 211.493 C 377.369 212.109,377.426 212.329,377.493 211.980 C 377.560 211.631,377.558 211.127,377.488 210.859 C 377.417 210.591,377.363 210.876,377.366 211.493 M387.451 226.489 C 387.451 227.029,387.509 227.249,387.579 226.980 C 387.650 226.710,387.650 226.268,387.579 225.999 C 387.509 225.729,387.451 225.950,387.451 226.489 M22.078 273.219 C 22.426 273.286,22.931 273.283,23.199 273.213 C 23.467 273.143,23.181 273.088,22.565 273.091 C 21.948 273.094,21.729 273.152,22.078 273.219 " stroke="none" fill="#787474" fill-rule="evenodd"></path><path id="path2" d="M387.478 207.288 C 387.479 208.367,387.530 208.774,387.591 208.193 C 387.651 207.611,387.650 206.728,387.588 206.231 C 387.527 205.733,387.477 206.209,387.478 207.288 M377.366 211.493 C 377.369 212.109,377.426 212.329,377.493 211.980 C 377.560 211.631,377.558 211.127,377.488 210.859 C 377.417 210.591,377.363 210.876,377.366 211.493 M387.451 226.489 C 387.451 227.029,387.509 227.249,387.579 226.980 C 387.650 226.710,387.650 226.268,387.579 225.999 C 387.509 225.729,387.451 225.950,387.451 226.489 M22.078 273.219 C 22.426 273.286,22.931 273.283,23.199 273.213 C 23.467 273.143,23.181 273.088,22.565 273.091 C 21.948 273.094,21.729 273.152,22.078 273.219 " stroke="none" fill="#787474" fill-rule="evenodd"></path><path id="path3" d="M387.478 207.288 C 387.479 208.367,387.530 208.774,387.591 208.193 C 387.651 207.611,387.650 206.728,387.588 206.231 C 387.527 205.733,387.477 206.209,387.478 207.288 M377.366 211.493 C 377.369 212.109,377.426 212.329,377.493 211.980 C 377.560 211.631,377.558 211.127,377.488 210.859 C 377.417 210.591,377.363 210.876,377.366 211.493 M387.451 226.489 C 387.451 227.029,387.509 227.249,387.579 226.980 C 387.650 226.710,387.650 226.268,387.579 225.999 C 387.509 225.729,387.451 225.950,387.451 226.489 M22.078 273.219 C 22.426 273.286,22.931 273.283,23.199 273.213 C 23.467 273.143,23.181 273.088,22.565 273.091 C 21.948 273.094,21.729 273.152,22.078 273.219 " stroke="none" fill="#787474" fill-rule="evenodd"></path><path id="path4" d="M387.478 207.288 C 387.479 208.367,387.530 208.774,387.591 208.193 C 387.651 207.611,387.650 206.728,387.588 206.231 C 387.527 205.733,387.477 206.209,387.478 207.288 M377.366 211.493 C 377.369 212.109,377.426 212.329,377.493 211.980 C 377.560 211.631,377.558 211.127,377.488 210.859 C 377.417 210.591,377.363 210.876,377.366 211.493 M387.451 226.489 C 387.451 227.029,387.509 227.249,387.579 226.980 C 387.650 226.710,387.650 226.268,387.579 225.999 C 387.509 225.729,387.451 225.950,387.451 226.489 M22.078 273.219 C 22.426 273.286,22.931 273.283,23.199 273.213 C 23.467 273.143,23.181 273.088,22.565 273.091 C 21.948 273.094,21.729 273.152,22.078 273.219 " stroke="none" fill="#787474" fill-rule="evenodd"></path></g></svg>